<?xml version="1.0" encoding="UTF-8"?>
<svg width="32px" height="32px" viewBox="0 0 32 32" version="1.1" xmlns="http://www.w3.org/2000/svg">
  <title>CodeMaster Icon</title>
  <defs>
    <linearGradient id="purpleGradient" x1="0%" y1="0%" x2="100%" y2="100%">
      <stop offset="0%" stop-color="#C084FC" />
      <stop offset="100%" stop-color="#8B5CF6" />
    </linearGradient>
  </defs>
  <g stroke="none" stroke-width="1" fill="none" fill-rule="evenodd">
    <rect fill="#1E1E2E" x="0" y="0" width="32" height="32" rx="6"></rect>
    <g transform="translate(6, 8)" fill="url(#purpleGradient)" fill-rule="nonzero">
      <path d="M7,3 L3,9 C2.7,9.5 2.7,10.5 3,11 L7,17 C7.4,17.6 8.1,17.8 8.7,17.4 C9.3,17 9.5,16.3 9.1,15.7 L5.8,10.5 C5.7,10.4 5.7,10.6 5.8,10.5 L9.1,5.3 C9.5,4.7 9.3,4 8.7,3.6 C8.1,3.2 7.4,3.4 7,4 L7,3 Z" />
      <path d="M13,3 L17,9 C17.3,9.5 17.3,10.5 17,11 L13,17 C12.6,17.6 11.9,17.8 11.3,17.4 C10.7,17 10.5,16.3 10.9,15.7 L14.2,10.5 C14.3,10.4 14.3,10.6 14.2,10.5 L10.9,5.3 C10.5,4.7 10.7,4 11.3,3.6 C11.9,3.2 12.6,3.4 13,4 L13,3 Z" />
    </g>
  </g>
</svg>
